PathFileType	4	(X/Y/Z)	CPRIT_Patient3_R_HipIso_Processed.TRC
DataRate	CameraRate	NumFrames	NumMarkers	Units	OrigDataRate	OrigDataStartFrame	OrigNumFrames
150.128314798973	150.128314798973	4	39	m	150.128314798973	1025	       1171
Frame#	Time	R.Heel			R.Midfoot.Superior			R.Midfoot.Lateral			R.Toe			L.Heel			L.Midfoot.Superior			L.Midfoot.Lateral			L.Toe			R.Shank.Superior			R.Shank.Inferior			R.Shank.Lateral			R.Shank.Posterior			L.Shank.Superior			L.Shank.Inferior			L.Shank.Posterior			L.Shank.Lateral			R.Patella			L.Patella			R.Thigh.Superior			R.Thigh.Lateral			R.Thigh.Inferior			L.Thigh.Superior			L.Thigh.Inferior			L.Thigh.Lateral			L.Asis			R.Asis			Sacral			R.Shoulder			L.Shoulder			C7			J.Notch			Sternum			Thoracic			L.Elbow			L.Wrist			R.Elbow			R.Wrist			R.PSIS			L.PSIS			
		X1	Y1	Z1	X2	Y2	Z2	X3	Y3	Z3	X4	Y4	Z4	X5	Y5	Z5	X6	Y6	Z6	X7	Y7	Z7	X8	Y8	Z8	X9	Y9	Z9	X10	Y10	Z10	X11	Y11	Z11	X12	Y12	Z12	X13	Y13	Z13	X14	Y14	Z14	X15	Y15	Z15	X16	Y16	Z16	X17	Y17	Z17	X18	Y18	Z18	X19	Y19	Z19	X20	Y20	Z20	X21	Y21	Z21	X22	Y22	Z22	X23	Y23	Z23	X24	Y24	Z24	X25	Y25	Z25	X26	Y26	Z26	X27	Y27	Z27	X28	Y28	Z28	X29	Y29	Z29	X30	Y30	Z30	X31	Y31	Z31	X32	Y32	Z32	X33	Y33	Z33	X34	Y34	Z34	X35	Y35	Z35	X36	Y36	Z36	X37	Y37	Z37	X38	Y38	Z38	X39	Y39	Z39	

1025	6.820831908832	0.551499656577	0.116850756818	0.163690013549	0.689001370908	0.180823025878	0.256192073879	0.582848526574	0.126669521660	0.254249231542	0.775426000397	0.149680491607	0.341985200300	0.720458347273	0.042600151914	-0.222074966134	0.891305077428	0.096986821083	-0.214950661632	0.806672546960	0.032862986394	-0.268925864557	1.007905004614	0.058053367180	-0.204254730873	0.710585794613	0.428808693098	0.179137683568	0.675343981041	0.314437980094	0.202242972242	0.604700612885	0.389158359830	0.192935710097	0.595555346997	0.428673164306	0.095430009048	0.846424254755	0.369421784555	-0.238023876918	0.837508602989	0.239007266130	-0.234090167356	0.714313046601	0.340078587454	-0.275349579523	0.797894239621	0.279223320604	-0.307989451394	0.766960499182	0.539596064296	0.145047158890	0.863837787457	0.478110572459	-0.229529794026	0.816161172871	0.834958396363	0.052621276425	0.718661090651	0.785084929024	0.092060407740	0.810529063244	0.683241815608	0.087256262436	0.922330957715	0.769690206596	-0.224083859817	0.897123261959	0.612745539186	-0.214898305545	0.846638745073	0.709283360605	-0.307916174326	0.918568057163	0.921474563714	-0.215104204804	0.820520985444	0.967051963924	0.001766503494	0.709035378831	1.016014639694	-0.182125989084	0.809874132700	1.416126877817	0.016029708193	0.923527759030	1.447100758962	-0.297864905771	0.816522819768	1.478180731639	-0.142365256088	0.930861549709	1.379222026123	-0.119131596042	0.970009002557	1.194789345117	-0.108412284884	0.733376297233	1.338660424348	-0.188502892413	0.898941883169	1.175843656164	-0.490775562669	1.060364161664	0.973186480950	-0.485413493739	0.761737358943	1.151745664660	0.213975749970	0.844463942579	0.989288048413	0.398329354922	0.696775573545	1.023056803213	-0.147529025672	0.723273920093	1.012017305646	-0.217692211270	
1026	6.827492877493	0.549317451731	0.119544619234	0.172274756526	0.686001815960	0.185150265419	0.264841818628	0.579933881786	0.130746710143	0.262917310183	0.771784964609	0.155412036737	0.351717481063	0.720459626402	0.042599986660	-0.222075502034	0.891297602503	0.096978198975	-0.214943352327	0.806673882289	0.032864388086	-0.268923266126	1.007911697977	0.058057039655	-0.204237035728	0.707524060697	0.432028911938	0.184208740831	0.672396726623	0.317950473469	0.208817096999	0.601626968021	0.392340078513	0.197925280717	0.593113936728	0.430412068070	0.099856862129	0.846314235379	0.369188898105	-0.238339477250	0.837453613230	0.239010172668	-0.234033029167	0.714281558097	0.340040752715	-0.275344312361	0.797893697795	0.279232408880	-0.307955656585	0.763885030984	0.542295977866	0.148848396901	0.863693455134	0.478073160879	-0.229404947405	0.814757614396	0.836277817947	0.053914404556	0.716795626491	0.787184050773	0.093054374601	0.808278392203	0.684932047394	0.089833603781	0.922168859801	0.769640760638	-0.223788391588	0.896948840549	0.612708201880	-0.214691997645	0.846583663123	0.709257247008	-0.307771939486	0.918476799283	0.921374701784	-0.214772104479	0.820034566900	0.967478144461	0.001902333809	0.708959435066	1.016167883002	-0.182337735225	0.810077545342	1.416099882297	0.015964613701	0.923954873337	1.447082408262	-0.297892346309	0.816807444884	1.478187048872	-0.142490552624	0.931090399646	1.379190803082	-0.119160765493	0.970041600428	1.194739717599	-0.108346063567	0.733628631664	1.338788086545	-0.188749772165	0.899131913337	1.175965604828	-0.490970668289	1.060371770319	0.973188901501	-0.485399819939	0.761849279284	1.151734283110	0.213911803565	0.844461884085	0.989287757626	0.398328382873	0.696639935530	1.023291991473	-0.147793190596	0.723257087518	1.012082502784	-0.217828728561	
1027	6.834153846154	0.547166825947	0.122425095671	0.181111217518	0.683018929108	0.189722232361	0.273688410803	0.577044504139	0.135056658093	0.271807478599	0.768149753424	0.161452506214	0.361642726844	0.720460820602	0.042599765796	-0.222075267990	0.891288310662	0.096968538362	-0.214936895075	0.806675112104	0.032866612572	-0.268919675377	1.007918746167	0.058061019868	-0.204218684539	0.704473295619	0.435411865022	0.189383633652	0.669466064705	0.321653647458	0.215539477247	0.598564371402	0.395676608517	0.203044845620	0.590703109477	0.432266072578	0.104425179934	0.846197977256	0.368952584494	-0.238655420279	0.837396433166	0.239012743186	-0.233967900080	0.714240901202	0.340003508654	-0.275324664408	0.797885368077	0.279242009583	-0.307910563482	0.760813009919	0.545128241330	0.152722223428	0.863547025635	0.478040088851	-0.229268591014	0.813323676206	0.837676748892	0.055260425296	0.714904572990	0.789350191004	0.094061239822	0.806013314865	0.686720670530	0.092464342339	0.921990899010	0.769587850233	-0.223508393076	0.896763750013	0.612678990725	-0.214491892268	0.846507262224	0.709224062184	-0.307642799040	0.918375055668	0.921274865122	-0.214442409096	0.819529075666	0.967930205797	0.002027768853	0.708874227924	1.016330134487	-0.182567594908	0.810270620901	1.416071073046	0.015901098412	0.924397234855	1.447071091108	-0.297907978495	0.817094431469	1.478195676155	-0.142612230962	0.931320336424	1.379162723274	-0.119180891111	0.970066086552	1.194691318857	-0.108275499639	0.733886451042	1.338927154922	-0.189005928261	0.899335267781	1.176100044230	-0.491161133907	1.060378017659	0.973193864337	-0.485382109843	0.761958458248	1.151723077197	0.213849977028	0.844459152172	0.989287861143	0.398329755317	0.696494337810	1.023538124493	-0.148076972131	0.723235636644	1.012147851108	-0.217976344215	
1028	6.840814814815	0.545045036647	0.125499191298	0.190184718055	0.680053336292	0.194539359344	0.282713455801	0.574180169319	0.139602319660	0.280902959318	0.764523264456	0.167798470948	0.371737218284	0.720461942657	0.042599508768	-0.222074327831	0.891277120196	0.096957832313	-0.214931659965	0.806676235428	0.032869596366	-0.268915167193	1.007926104931	0.058065324397	-0.204199845553	0.701438036449	0.438956934235	0.194654100156	0.666554332130	0.325548211760	0.222397782234	0.595516781542	0.399169540761	0.208286336028	0.588325376650	0.434239422994	0.109128970725	0.846075877181	0.368715517153	-0.238967850868	0.837337112014	0.239015083480	-0.233895359077	0.714190776304	0.339967001194	-0.275290864310	0.797868976317	0.279252133688	-0.307854584013	0.757751144312	0.548091798825	0.156662760464	0.863398838003	0.478011870302	-0.229121119488	0.811864927897	0.839153194700	0.056651025977	0.712994428810	0.791581798921	0.095079193870	0.803739951871	0.688608023731	0.095143191892	0.921797241557	0.769532114239	-0.223244849154	0.896568485731	0.612658411808	-0.214298592101	0.846408933151	0.709184494251	-0.307528675215	0.918262334722	0.921175345522	-0.214116134171	0.819005681561	0.968408211516	0.002142821964	0.708779390834	1.016501053711	-0.182813994298	0.810452478922	1.416040544447	0.015839378438	0.924853801958	1.447066864613	-0.297911588584	0.817382754726	1.478206607804	-0.142730075168	0.931550484594	1.379137948692	-0.119191681642	0.970082163316	1.194644484562	-0.108200640665	0.734148852437	1.339077469601	-0.189270442821	0.899551304963	1.176246860384	-0.491346463325	1.060382602754	0.973201502974	-0.485360168966	0.762064631740	1.151712271499	0.213790903352	0.844455698199	0.989288402822	0.398333803293	0.696338716754	1.023794972301	-0.148378821356	0.723208971341	1.012212756612	-0.218133538988	
